<?xml version="1.0" standalone="no"?>
<!DOCTYPE svg PUBLIC "-//W3C//DTD SVG 20010904//EN"
 "http://www.w3.org/TR/2001/REC-SVG-20010904/DTD/svg10.dtd">
<svg version="1.0" xmlns="http://www.w3.org/2000/svg"
 width="674.000000pt" height="673.000000pt" viewBox="0 0 674.000000 673.000000"
 preserveAspectRatio="xMidYMid meet">

<g transform="translate(0.000000,673.000000) scale(0.100000,-0.100000)"
fill="#000000" stroke="none">
<path d="M2279 5646 c-79 -23 -110 -83 -146 -275 -13 -75 -29 -158 -34 -186
-5 -27 -9 -115 -9 -195 0 -187 -4 -231 -23 -245 -9 -7 -15 -25 -15 -44 1 -18
-5 -37 -13 -42 -10 -6 -10 -9 -1 -9 6 0 12 -4 12 -10 0 -5 -5 -10 -11 -10 -22
0 -40 -31 -41 -70 0 -36 -4 -42 -34 -56 -33 -16 -38 -24 -35 -51 1 -7 -4 -13
-10 -13 -8 0 -6 -7 5 -19 17 -18 17 -20 -1 -31 -13 -8 -14 -13 -5 -16 6 -3 10
-10 6 -15 -3 -5 3 -9 13 -9 15 0 14 -4 -7 -20 -25 -19 -25 -20 -3 -20 32 0 40
-21 15 -38 -24 -16 -30 -34 -9 -26 10 4 12 -3 9 -26 -3 -19 0 -30 8 -30 7 0 9
-8 5 -20 -5 -17 -2 -20 22 -20 25 -1 26 -2 11 -14 -19 -14 -24 -46 -8 -46 6 0
10 -9 10 -19 0 -11 9 -23 21 -26 14 -5 18 -10 10 -14 -15 -10 -4 -39 20 -52
11 -5 17 -14 14 -19 -6 -10 -11 -27 -22 -80 -8 -34 -32 -60 -57 -60 -21 -1
-63 -26 -58 -35 6 -12 1 -25 -11 -25 -10 0 -34 -42 -41 -70 0 -3 -11 -15 -23
-27 -13 -13 -23 -26 -23 -30 0 -5 -12 -21 -26 -38 -15 -16 -33 -43 -40 -60
-18 -40 -34 -57 -67 -74 -16 -9 -26 -20 -23 -28 3 -7 1 -13 -4 -13 -6 0 -10
-7 -10 -15 0 -9 -6 -18 -14 -21 -8 -3 -12 -12 -9 -20 3 -8 0 -14 -5 -14 -6 0
-13 -9 -17 -19 -3 -10 -16 -22 -28 -26 -19 -6 -19 -8 -4 -12 21 -5 22 -22 3
-29 -8 -3 -20 -28 -27 -55 -7 -27 -17 -49 -22 -49 -5 0 -7 -9 -4 -20 4 -14 -4
-27 -26 -45 -24 -18 -27 -25 -14 -25 9 0 17 -4 17 -9 0 -14 -34 -71 -42 -71
-5 0 -8 -9 -8 -20 0 -11 -7 -23 -15 -26 -8 -4 -13 -10 -10 -14 3 -4 -5 -11
-18 -15 -19 -6 -19 -8 -4 -12 25 -7 21 -15 -18 -42 -25 -17 -42 -22 -62 -17
-34 8 -491 159 -893 294 -162 55 -318 107 -345 115 -28 8 -58 18 -67 22 -17 7
-18 -73 -18 -1596 0 -1505 1 -1605 18 -1640 l17 -38 2953 -1 2952 0 0 23 c0
13 -6 46 -14 73 -8 27 -17 67 -20 89 -4 22 -17 85 -31 140 -14 55 -36 152 -49
215 -51 245 -103 478 -132 603 -16 65 -22 77 -38 75 -16 -3 -22 9 -37 77 -10
44 -22 86 -26 93 -5 7 -46 26 -93 42 -47 16 -93 34 -102 40 -10 5 -24 10 -32
10 -8 0 -18 4 -21 10 -3 6 1 7 9 4 23 -9 21 32 -1 45 -16 9 -16 12 -3 21 13 9
13 11 0 20 -8 5 -10 10 -4 10 8 0 9 14 2 48 -5 26 -10 55 -11 65 -1 9 -5 17
-10 17 -5 0 -7 13 -4 28 4 19 -1 40 -14 61 -11 18 -17 36 -14 41 3 4 -2 10
-10 13 -7 3 -17 23 -21 44 -4 21 -11 41 -16 44 -5 3 -4 17 2 34 8 20 7 31 -1
41 -9 11 -8 14 1 14 9 0 8 5 -3 18 -10 10 -17 24 -17 30 0 6 -9 14 -20 17 -21
7 -28 25 -10 25 13 0 13 37 -1 45 -6 4 -8 13 -5 21 3 9 -1 14 -12 14 -15 0
-15 2 -2 10 13 8 11 11 -7 16 -23 6 -32 24 -13 24 6 0 10 4 10 10 0 5 -7 7
-16 3 -12 -4 -14 0 -8 22 4 18 3 26 -3 22 -6 -4 -15 5 -21 18 -7 14 -17 25
-23 25 -8 0 -8 4 -1 13 14 17 -9 47 -36 47 -29 0 -38 20 -10 21 17 1 18 3 6 6
-10 2 -18 10 -18 18 0 21 -27 38 -45 27 -23 -13 -84 10 -106 39 -17 23 -18 23
-37 5 -12 -10 -29 -16 -39 -13 -14 4 -14 5 5 6 12 0 22 6 22 12 0 6 -9 8 -20
4 -15 -5 -20 -2 -20 12 0 15 -2 14 -16 -5 -15 -22 -54 -31 -54 -12 0 6 6 10
14 10 8 0 18 5 21 10 10 17 -33 11 -50 -7 -10 -9 -35 -18 -57 -19 -22 -1 -51
-5 -66 -9 -22 -5 -24 -4 -13 8 8 10 9 17 1 22 -15 9 -32 -5 -26 -21 3 -8 1
-14 -4 -14 -6 0 -10 9 -10 19 0 16 -7 19 -42 19 -58 0 -81 6 -87 23 -2 7 -14
21 -25 31 -18 15 -18 17 -4 18 13 0 15 6 12 27 -3 16 -12 31 -19 36 -11 6 -12
14 -5 33 10 25 10 25 -39 40 -8 3 -11 7 -8 10 11 12 -36 84 -80 122 -29 26
-41 42 -33 47 7 4 -5 22 -34 50 -25 24 -46 50 -46 58 0 8 -11 26 -24 40 -14
15 -20 29 -15 33 5 3 -2 20 -17 37 -23 27 -24 32 -10 42 9 7 12 16 8 20 -4 5
1 5 11 2 21 -8 46 12 39 31 -2 7 5 16 17 19 12 3 21 11 21 17 0 7 6 18 12 24
7 7 13 18 13 25 2 27 18 67 27 67 6 0 6 6 -1 14 -9 11 -9 15 1 18 11 4 11 8 0
20 -9 11 -10 18 -2 23 6 3 8 10 5 15 -3 5 4 15 15 23 12 8 23 27 26 43 3 16 9
31 13 34 4 3 7 26 6 52 -2 31 3 52 11 59 8 6 14 17 14 23 0 7 9 22 20 34 12
12 17 22 13 23 -4 0 1 4 12 8 12 5 20 18 21 37 1 16 4 66 8 111 3 49 2 84 -4
88 -5 3 -9 39 -9 78 0 40 -6 97 -15 127 -15 51 -29 142 -28 183 1 9 -6 17 -15
17 -10 0 -13 6 -9 16 4 10 -6 28 -26 49 -87 91 -110 116 -107 118 2 1 12 7 23
12 29 17 24 27 -21 44 -24 8 -43 21 -43 29 0 20 -26 42 -50 42 -12 0 -18 5
-15 10 3 6 -1 10 -9 10 -9 0 -16 6 -16 13 -1 6 -15 21 -33 32 -18 11 -33 30
-35 43 -3 21 -22 32 -22 12 0 -17 -17 -11 -23 8 -4 9 -17 30 -29 45 l-23 28
34 127 c19 70 40 150 48 177 18 67 12 188 -11 214 -42 46 -136 28 -211 -40
-66 -61 -174 -206 -221 -296 -40 -79 -85 -98 -160 -67 -26 11 -39 13 -42 5 -2
-6 -8 -8 -14 -5 -6 4 -14 1 -18 -6 -6 -10 -15 -10 -40 -1 -18 6 -42 11 -52 11
-11 0 -31 9 -45 20 -19 15 -29 17 -39 9 -7 -6 -18 -8 -24 -4 -5 3 -10 0 -10
-7 0 -9 -14 -13 -42 -13 -24 -1 -47 -2 -53 -4 -5 -2 -30 -3 -53 -2 -37 1 -49
7 -75 37 -39 43 -131 186 -153 237 -9 20 -20 37 -25 37 -5 0 -9 6 -9 13 0 26
-129 174 -182 209 -63 43 -136 59 -189 44z m1636 -970 c46 -93 74 -124 165
-181 84 -52 141 -104 172 -153 16 -26 19 -42 14 -75 -6 -36 -1 -55 30 -121 23
-51 34 -88 31 -104 -3 -14 0 -36 5 -48 8 -18 7 -26 -6 -39 -9 -9 -16 -25 -16
-36 0 -21 -45 -69 -64 -69 -12 0 -56 63 -56 80 0 5 -4 10 -9 10 -5 0 -13 25
-17 56 -6 51 -4 61 30 126 35 68 41 102 11 62 -14 -19 -14 -18 -15 3 0 29 -20
40 -27 14 -3 -11 -16 -27 -29 -36 -22 -14 -23 -19 -17 -79 5 -55 3 -69 -16
-100 -13 -20 -26 -36 -31 -36 -4 0 -37 -17 -71 -39 -35 -21 -75 -42 -89 -46
-14 -4 -33 -14 -43 -23 -9 -8 -20 -12 -24 -9 -3 4 -13 -2 -22 -12 -22 -25
-139 -72 -144 -57 -2 7 -13 4 -31 -8 -29 -18 -48 -14 -28 6 27 27 9 29 -19 2
-24 -23 -29 -25 -24 -9 5 15 0 12 -19 -10 -27 -30 -27 -30 -10 -2 25 42 7 47
-28 7 -16 -19 -27 -29 -23 -22 11 21 -4 33 -27 21 -21 -12 -21 -11 0 16 28 35
22 42 -15 19 -28 -18 -28 -18 -10 2 9 11 40 31 67 44 50 23 50 24 28 37 -13 7
-35 12 -50 13 -65 1 -27 27 77 54 11 3 1 4 -22 3 -24 -2 -43 1 -43 5 0 3 -9 9
-19 13 -34 10 -33 34 1 43 32 8 38 15 58 67 7 20 22 35 42 43 21 8 29 16 25
26 -4 9 2 23 11 32 9 10 17 21 17 26 0 4 10 15 22 23 13 9 20 22 17 30 -4 10
0 15 11 15 14 0 17 6 12 34 -5 31 -1 38 39 75 29 27 44 48 44 65 0 13 7 31 15
40 8 8 15 26 15 40 0 14 5 28 10 31 14 9 13 81 -2 104 -9 15 -9 29 0 58 6 21
8 52 5 68 l-6 30 31 -29 c17 -16 47 -61 67 -100z m-1675 -36 c0 -11 -2 -20 -5
-20 -2 0 -9 9 -15 20 -9 16 -8 20 5 20 8 0 15 -9 15 -20z m1020 -49 c0 -10
-30 -24 -37 -17 -3 3 -2 9 2 15 8 13 35 15 35 2z m189 -145 c-13 -29 -32 -36
-22 -8 8 19 26 42 31 37 1 -1 -3 -14 -9 -29z m-342 -312 c-3 -3 -12 -4 -19 -1
-8 3 -5 6 6 6 11 1 17 -2 13 -5z m333 -28 c8 -2 -22 -4 -67 -5 -46 0 -83 3
-83 7 0 7 114 5 150 -2z m-172 -123 c-21 -2 -55 -2 -75 0 -21 2 -4 4 37 4 41
0 58 -2 38 -4z m79 1 c-3 -3 -12 -4 -19 -1 -8 3 -5 6 6 6 11 1 17 -2 13 -5z
m41 -31 c-10 -2 -28 -2 -40 0 -13 2 -5 4 17 4 22 1 32 -1 23 -4z m-105 -10
c-13 -2 -33 -2 -45 0 -13 2 -3 4 22 4 25 0 35 -2 23 -4z m-130 -10 c-7 -2 -21
-2 -30 0 -10 3 -4 5 12 5 17 0 24 -2 18 -5z m-76 -9 c-3 -3 -12 -4 -19 -1 -8
3 -5 6 6 6 11 1 17 -2 13 -5z m393 -3 c-8 -5 -35 -11 -60 -14 l-45 -6 50 14
c60 16 75 17 55 6z m-117 -28 c-7 -2 -19 -2 -25 0 -7 3 -2 5 12 5 14 0 19 -2
13 -5z m-56 -9 c-3 -3 -12 -4 -19 -1 -8 3 -5 6 6 6 11 1 17 -2 13 -5z m869
-43 c44 -50 64 -105 57 -160 -3 -28 -11 -51 -17 -51 -7 0 -20 -13 -29 -30 -10
-16 -28 -35 -40 -41 -12 -6 -34 -26 -49 -43 -16 -17 -28 -26 -29 -21 0 6 -6
-6 -14 -25 -11 -32 -11 -37 8 -57 11 -13 29 -23 39 -23 24 0 20 -33 -5 -40
-18 -5 -18 -7 3 -32 24 -31 16 -62 -19 -73 -11 -3 -28 -24 -37 -46 -18 -40
-29 -48 -37 -26 -3 6 -8 -3 -12 -20 -4 -18 -11 -33 -16 -33 -5 0 -9 -7 -9 -15
0 -8 -5 -15 -10 -15 -7 0 -7 -6 -1 -19 8 -14 7 -20 -4 -25 -21 -8 -18 -21 8
-34 22 -10 22 -11 -5 -11 -31 -1 -38 -17 -10 -24 13 -4 11 -5 -5 -6 -30 -1
-29 -19 1 -32 28 -13 32 -55 6 -62 -13 -3 -16 -11 -13 -31 3 -14 10 -26 17
-27 6 0 1 -4 -11 -9 -16 -6 -22 -18 -22 -37 -1 -56 -5 -74 -18 -69 -7 3 -23 1
-35 -4 -22 -8 -21 -9 7 -11 17 -1 40 -1 53 0 12 1 22 -3 22 -9 0 -5 -11 -10
-25 -10 -14 0 -25 -4 -25 -9 0 -5 -8 -12 -17 -14 -15 -4 -14 -6 5 -12 33 -11
9 -25 -42 -25 -36 0 -38 -1 -22 -13 18 -13 18 -14 0 -22 -27 -12 -30 -12 -71
-15 l-38 -2 28 -11 c15 -6 27 -17 27 -24 0 -8 11 -18 25 -23 37 -14 30 -18
-15 -10 -35 6 -41 5 -38 -9 3 -15 -29 -53 -62 -71 -12 -7 -13 -12 -2 -29 20
-33 15 -41 -24 -36 -35 4 -35 4 -14 -13 23 -19 19 -52 -7 -52 -8 0 -11 -4 -8
-10 9 -14 -8 -12 -24 3 -11 10 -13 9 -8 -4 3 -11 -5 -19 -29 -28 -31 -11 -33
-14 -23 -34 7 -12 17 -25 23 -29 6 -5 2 -8 -11 -8 -12 0 -23 5 -25 12 -3 9 -6
9 -11 1 -4 -7 5 -24 20 -39 25 -24 26 -25 3 -10 -31 20 -50 20 -50 0 0 -11 -5
-14 -17 -9 -10 4 -31 11 -48 15 -16 5 -45 13 -64 19 -19 6 -35 10 -35 8 -8
-26 -45 -81 -60 -89 -12 -6 -44 -32 -73 -58 -48 -44 -114 -72 -131 -56 -3 3 1
6 10 6 31 0 49 75 32 133 -7 21 -24 22 -24 1 0 -23 -48 -117 -67 -131 -9 -7
-35 -13 -57 -12 -23 0 -35 3 -28 6 23 9 12 23 -18 23 -16 0 -30 -4 -30 -10 0
-5 -8 -10 -17 -10 -10 0 -14 4 -8 8 14 10 17 32 5 32 -5 0 -15 -9 -22 -20 -30
-47 -59 -13 -48 55 4 27 5 55 3 62 -7 17 -64 5 -83 -18 -20 -24 -80 -33 -112
-17 -47 25 -160 132 -180 172 -16 31 -19 52 -15 95 7 78 21 102 78 136 46 27
72 58 30 35 -34 -18 -36 -11 -6 20 16 17 36 30 46 30 9 0 24 11 33 25 10 14
30 27 51 31 l35 6 -25 25 c-13 14 -23 29 -20 33 8 13 89 30 125 27 20 -2 45
-9 58 -16 24 -13 30 -3 10 17 -19 19 0 27 21 8 13 -12 21 -14 26 -6 8 13 108
7 113 -8 1 -5 12 -8 22 -5 11 3 20 1 20 -5 0 -6 9 -8 20 -5 22 6 28 23 7 23
-7 0 -18 9 -25 20 -7 11 -19 20 -27 20 -8 0 -15 5 -15 11 0 6 -8 8 -20 4 -15
-5 -25 3 -45 34 -25 41 -39 49 -50 31 -10 -16 -45 -12 -45 6 0 8 -5 12 -10 9
-6 -4 -17 -2 -25 5 -7 6 -26 13 -42 15 -15 2 -29 4 -30 6 -5 3 -23 6 -43 8
-11 0 -20 8 -20 16 0 9 -8 14 -22 12 -19 -2 -22 2 -20 21 2 12 -2 22 -7 22 -6
0 -11 -7 -11 -15 0 -17 -26 -21 -32 -4 -2 6 -24 12 -48 14 -25 1 -51 3 -57 4
-7 0 -13 11 -13 24 0 12 4 17 8 11 4 -6 15 -13 24 -17 15 -5 16 -4 6 13 -7 10
-20 21 -30 23 -10 3 -18 12 -18 21 0 10 -9 16 -23 16 -29 0 -34 36 -6 43 10 3
22 13 26 24 11 31 52 63 71 56 15 -6 15 -5 3 10 -15 19 -9 20 38 11 37 -8 42
-34 6 -34 -32 0 -32 -18 -1 -30 13 -5 27 -14 31 -19 3 -6 13 -11 21 -11 11 0
12 4 4 19 -14 27 -13 31 9 31 26 0 32 -21 13 -43 -13 -14 -13 -21 -2 -42 26
-48 71 -41 49 8 -9 20 -9 30 0 40 14 17 4 47 -15 47 -8 0 -14 6 -14 13 0 17
47 18 54 1 3 -8 11 -14 18 -14 10 0 12 -12 10 -39 -3 -31 1 -43 22 -64 14 -14
26 -37 26 -51 0 -14 5 -28 10 -31 15 -9 12 38 -4 61 -22 31 -24 68 -3 72 12 3
19 -5 23 -27 4 -17 11 -28 18 -25 8 3 19 -12 29 -36 16 -42 47 -55 47 -20 0
11 -4 20 -10 20 -5 0 -10 17 -9 38 0 30 2 33 9 17 5 -11 9 -15 10 -10 0 6 9
-1 20 -15 11 -14 20 -20 20 -14 0 13 50 26 50 13 0 -5 -4 -9 -10 -9 -5 0 -10
-5 -10 -11 0 -6 7 -9 15 -5 8 3 14 0 12 -6 -1 -7 4 -13 11 -14 6 -1 13 -3 15
-4 1 -1 20 -4 42 -6 47 -4 85 -22 85 -40 0 -8 6 -11 15 -8 8 4 17 -1 21 -10 9
-24 26 -19 19 5 -19 58 -105 143 -105 103 0 -8 -4 -14 -9 -14 -18 0 -51 53
-51 81 0 29 -13 38 -25 19 -10 -17 -25 -11 -25 9 0 11 -3 21 -7 23 -5 2 -17
21 -28 43 -24 49 -30 66 -15 43 16 -25 33 -23 20 2 -15 28 -1 25 32 -7 26 -24
28 -25 28 -7 0 11 -5 25 -12 32 -15 15 -7 22 30 25 53 4 60 51 10 70 -10 3
-18 13 -18 22 0 17 36 56 55 59 7 1 20 8 29 16 23 18 39 1 34 -36 -2 -21 -8
-28 -20 -26 -19 3 -24 -13 -8 -23 15 -10 12 -35 -5 -35 -8 0 -15 -4 -15 -9 0
-5 -3 -18 -7 -28 -6 -16 -5 -16 10 -4 10 8 21 11 24 7 4 -4 1 -12 -7 -17 -11
-8 -8 -9 13 -4 21 4 36 0 58 -20 17 -14 35 -25 40 -25 5 0 9 -6 9 -14 0 -10 7
-12 22 -8 17 4 20 2 15 -11 -3 -9 -2 -19 3 -22 6 -4 10 1 10 10 0 12 6 15 20
10 15 -5 18 -3 14 9 -3 9 -9 16 -13 16 -4 0 -13 11 -19 24 -7 17 -17 23 -35
21 -16 -2 -38 8 -61 27 -37 30 -37 30 -30 89 6 56 5 61 -22 86 -27 25 -28 28
-9 31 11 2 29 12 40 21 11 10 34 23 52 30 41 16 52 41 18 41 -17 0 -23 -4 -19
-14 6 -15 -22 -30 -31 -16 -6 10 9 29 60 80 16 17 31 26 33 21 2 -6 19 -1 39
10 19 11 38 18 41 14 3 -3 0 -5 -6 -5 -7 0 -12 -7 -12 -15 0 -8 7 -15 15 -15
22 0 18 -15 -7 -33 l-23 -15 28 5 c15 3 27 11 27 18 0 18 29 47 41 40 15 -10
10 -25 -7 -25 -9 0 -14 -6 -11 -12 2 -7 11 -11 18 -9 8 2 24 4 37 5 13 1 30
10 38 20 14 19 14 19 14 -1 0 -12 -5 -34 -11 -49 l-10 -28 22 19 c20 18 22 18
16 3 -7 -20 -6 -21 17 -12 8 3 12 12 9 20 -6 16 22 20 32 3 5 -7 15 -3 30 11
17 16 24 18 28 8 8 -19 37 19 37 50 0 13 4 21 10 17 5 -3 7 -13 4 -23 -5 -14
-3 -14 10 2 9 11 16 25 16 30 0 6 7 3 14 -7 13 -16 14 -16 19 4 5 17 11 20 34
17 15 -3 35 -8 44 -12 12 -5 20 1 30 23 7 16 20 32 29 35 8 3 20 8 25 11 6 3
10 -8 11 -25 1 -16 -3 -27 -7 -24 -5 3 -13 -5 -18 -18 -13 -34 -103 -121 -111
-108 -5 7 -11 6 -19 -3 -15 -18 -10 -105 7 -112 6 -2 12 -11 12 -20 0 -22 15
-18 29 8 l11 22 -6 -23 c-5 -21 -4 -21 40 8 52 35 66 55 58 82 -3 14 -1 17 13
11 15 -5 17 -2 12 16 -3 14 0 24 9 28 9 3 12 13 9 24 -7 21 15 49 39 49 19 0
21 11 4 28 -9 9 -8 12 5 12 10 0 14 5 11 14 -4 10 2 16 18 18 16 2 22 9 20 21
-2 9 4 20 13 23 9 4 14 12 11 20 -3 7 1 18 9 24 8 6 12 17 9 24 -9 23 48 5 72
-23z m-786 24 c0 -6 -32 -19 -70 -29 -14 -3 -7 3 15 13 42 21 55 24 55 16z
m106 -20 c-11 -8 -31 -15 -45 -14 -21 0 -19 3 14 14 52 17 53 17 31 0z m-836
-12 c-8 -3 -24 -10 -35 -15 -20 -9 -20 -9 -1 6 11 9 27 16 35 15 14 0 14 -1 1
-6z m320 -469 c0 -8 -5 -12 -10 -9 -6 4 -8 11 -5 16 9 14 15 11 15 -7z m-490
-24 c0 -5 -4 -10 -10 -10 -5 0 -10 5 -10 10 0 6 5 10 10 10 6 0 10 -4 10 -10z
m507 -32 c-3 -7 -5 -2 -5 12 0 14 2 19 5 13 2 -7 2 -19 0 -25z m-47 -4 c0 -8
-4 -14 -10 -14 -5 0 -10 9 -10 21 0 11 5 17 10 14 6 -3 10 -13 10 -21z m-74
-41 c-11 -11 -17 4 -9 23 7 18 8 18 11 1 2 -10 1 -21 -2 -24z m24 -80 c0 -7 9
-13 20 -13 13 0 20 -7 20 -20 0 -25 -17 -26 -23 -2 -4 16 -5 16 -6 -1 0 -10 9
-21 22 -26 27 -10 53 -39 43 -48 -3 -3 -6 -2 -6 4 0 6 -9 9 -20 6 -13 -4 -29
4 -47 24 -16 16 -34 32 -40 34 -8 2 -15 31 -19 69 l-6 65 30 -40 c18 -22 32
-46 32 -52z m-444 42 c-3 -8 -1 -15 4 -15 6 0 10 7 10 15 0 8 5 15 10 15 16 0
11 -27 -6 -34 -19 -7 -47 12 -38 25 9 15 26 10 20 -6z m138 -11 c-33 -18 -34
-18 -34 4 0 15 6 18 30 14 l31 -4 -27 -14z m200 -24 c3 0 6 7 6 16 0 8 5 12
10 9 6 -3 10 -15 10 -26 0 -16 -4 -19 -22 -13 -32 9 -48 24 -48 42 0 11 5 10
19 -6 10 -12 21 -22 25 -22z m-168 -17 c-11 -11 -19 6 -11 24 8 17 8 17 12 0
3 -10 2 -21 -1 -24z m-31 -544 c-8 -11 -42 -12 -49 -1 -3 5 8 9 25 10 16 0 27
-4 24 -9z m1900 -99 c17 -7 16 -9 -10 -9 -16 0 -37 4 -45 9 -12 8 -10 10 10 9
14 0 34 -4 45 -9z m-60 -50 c3 -5 -1 -10 -9 -10 -9 0 -16 5 -16 10 0 6 4 10 9
10 6 0 13 -4 16 -10z m115 -232 c0 -4 7 -5 15 -2 9 4 15 0 15 -9 0 -10 8 -13
25 -9 16 3 25 0 25 -8 0 -8 9 -10 27 -5 23 5 25 4 14 -9 -11 -13 -11 -16 2
-16 9 0 19 -9 22 -20 3 -11 13 -20 21 -20 8 0 12 -4 9 -10 -3 -5 1 -10 10 -10
9 0 13 -4 10 -10 -3 -5 -1 -10 4 -10 6 0 11 -9 11 -20 0 -14 7 -20 23 -20 22
-1 22 -1 2 -16 -19 -14 -19 -15 10 -40 30 -26 45 -84 21 -84 -6 0 -3 -7 7 -14
12 -10 15 -16 7 -21 -8 -5 -6 -13 7 -28 16 -18 16 -20 1 -14 -24 9 -30 -4 -13
-30 13 -19 13 -24 2 -29 -10 -3 -13 -22 -11 -70 2 -35 -1 -62 -6 -59 -4 3 -11
-8 -15 -25 -4 -16 -11 -32 -16 -35 -5 -4 -9 -14 -9 -23 0 -25 -109 -127 -152
-143 -38 -13 -65 -5 -38 11 12 8 12 10 -3 16 -9 3 -17 10 -17 16 0 5 4 7 8 4
14 -9 17 153 3 167 -4 4 -26 1 -47 -7 -58 -22 -148 -28 -178 -12 -14 7 -22 17
-18 21 4 4 -3 5 -15 2 -53 -13 0 38 55 52 52 15 54 20 3 18 -33 -1 -46 5 -85
41 -25 23 -55 42 -66 42 -23 0 -26 10 -8 28 9 9 8 12 -5 12 -31 0 -18 31 21
47 l37 16 -33 7 c-18 4 -41 15 -50 23 -18 16 -62 19 -62 5 0 -4 -6 -8 -13 -8
-18 0 -36 41 -44 96 -5 37 -3 45 13 51 11 3 35 19 54 35 19 15 40 28 47 28 7
0 13 3 13 8 0 4 17 16 38 27 20 11 51 30 68 42 32 24 98 31 109 13 4 -6 12 -7
18 -3 26 16 127 25 127 11z m-969 -45 c13 -17 13 -17 -6 -3 -11 8 -22 16 -24
17 -2 2 0 3 6 3 6 0 17 -8 24 -17z m429 -223 c0 -13 -7 -20 -20 -20 -23 0 -26
10 -8 28 18 18 28 15 28 -8z m170 -50 c0 -5 -4 -10 -10 -10 -5 0 -10 5 -10 10
0 6 5 10 10 10 6 0 10 -4 10 -10z"/>
<path d="M3963 4252 c-18 -2 -33 -6 -33 -10 1 -4 37 -25 82 -46 l80 -39 19 24
c26 33 21 73 -10 77 -13 2 -34 -2 -46 -8 -14 -8 -29 -9 -41 -3 -11 5 -34 7
-51 5z"/>
<path d="M3975 4000 c-4 -6 5 -10 20 -10 15 0 24 4 20 10 -3 6 -12 10 -20 10
-8 0 -17 -4 -20 -10z"/>
<path d="M3895 3980 c3 -5 10 -10 16 -10 5 0 9 5 9 10 0 6 -7 10 -16 10 -8 0
-12 -4 -9 -10z"/>
<path d="M3800 3970 c0 -5 4 -10 9 -10 6 0 13 5 16 10 3 6 -1 10 -9 10 -9 0
-16 -4 -16 -10z"/>
<path d="M3820 3896 c0 -2 7 -6 15 -10 8 -3 15 -1 15 4 0 6 -7 10 -15 10 -8 0
-15 -2 -15 -4z"/>
<path d="M3598 3856 c-48 -23 -81 -46 -75 -52 2 -2 29 10 61 26 31 17 64 30
72 30 8 0 14 5 14 10 0 15 -21 12 -72 -14z"/>
<path d="M3765 3830 c-10 -11 -13 -20 -8 -20 13 0 38 29 31 35 -3 3 -13 -4
-23 -15z"/>
<path d="M4100 3790 c0 -5 5 -10 11 -10 5 0 7 5 4 10 -3 6 -8 10 -11 10 -2 0
-4 -4 -4 -10z"/>
<path d="M4090 3735 c0 -25 4 -35 13 -32 6 2 12 16 12 32 0 16 -6 30 -12 33
-9 2 -13 -8 -13 -33z"/>
<path d="M4070 3699 c0 -9 -11 -26 -25 -39 -17 -16 -25 -34 -25 -57 l0 -34 29
20 c40 29 59 87 37 109 -14 14 -16 14 -16 1z"/>
<path d="M3772 3677 c-12 -13 -22 -27 -22 -31 0 -8 15 6 39 37 20 25 8 21 -17
-6z"/>
<path d="M3643 3575 c-8 -22 6 -33 17 -15 13 20 12 30 0 30 -6 0 -13 -7 -17
-15z"/>
<path d="M3695 3549 c-4 -5 -18 -14 -31 -19 -15 -6 -24 -18 -24 -31 0 -20 1
-21 25 -5 31 20 41 21 25 1 -21 -25 9 -19 31 7 23 26 24 44 3 52 -21 8 -22 8
-29 -5z"/>
<path d="M3960 3520 c0 -5 5 -10 10 -10 6 0 10 5 10 10 0 6 -4 10 -10 10 -5 0
-10 -4 -10 -10z"/>
<path d="M3255 3460 c-3 -5 -1 -10 4 -10 6 0 11 5 11 10 0 6 -2 10 -4 10 -3 0
-8 -4 -11 -10z"/>
<path d="M3210 3450 c0 -5 5 -10 10 -10 6 0 10 5 10 10 0 6 -4 10 -10 10 -5 0
-10 -4 -10 -10z"/>
<path d="M3732 3449 c2 -7 10 -15 17 -17 8 -3 12 1 9 9 -2 7 -10 15 -17 17 -8
3 -12 -1 -9 -9z"/>
<path d="M3506 3244 c4 -16 11 -34 16 -41 5 -6 5 -13 1 -16 -11 -7 -36 13 -51
38 -6 11 -12 15 -12 8 0 -20 20 -67 33 -75 6 -4 8 -10 4 -14 -4 -4 -17 4 -28
17 -15 16 -23 20 -26 12 -3 -8 -22 -13 -44 -13 -22 0 -38 -3 -35 -8 12 -21
-133 9 -149 31 -7 11 -14 11 -27 4 -12 -8 -23 -8 -40 2 -13 6 -30 13 -38 14
-8 2 -21 6 -27 10 -8 5 -13 3 -13 -3 0 -7 -7 -10 -15 -6 -11 4 -15 -1 -15 -19
0 -13 5 -27 10 -30 6 -3 10 -14 10 -23 1 -23 31 -58 58 -66 12 -4 20 -11 17
-15 -2 -5 7 -6 20 -3 27 5 139 -38 193 -75 19 -12 42 -25 53 -28 10 -4 19 -11
19 -17 0 -6 6 -6 15 2 12 10 21 10 40 2 20 -9 25 -9 25 3 0 7 -4 17 -10 20
-20 12 -9 25 21 25 26 0 29 3 20 14 -9 11 -8 17 4 29 9 10 11 18 5 22 -18 11
-11 23 10 18 11 -3 20 0 20 6 0 6 7 11 15 11 18 0 20 16 4 26 -7 4 -9 21 -5
44 4 29 1 43 -14 63 -11 14 -20 30 -20 36 0 6 -4 11 -9 11 -5 0 -17 3 -26 6
-13 5 -15 2 -9 -22z m-431 -64 c3 -5 1 -10 -4 -10 -6 0 -11 5 -11 10 0 6 2 10
4 10 3 0 8 -4 11 -10z m30 -41 c4 -6 13 -8 20 -5 7 2 31 0 53 -6 33 -8 39 -13
34 -30 -3 -15 -10 -18 -26 -13 -11 3 -28 7 -35 9 -8 1 -17 8 -19 14 -2 7 -8 9
-13 6 -11 -6 -39 13 -39 27 0 13 17 11 25 -2z m145 -39 c0 -5 -4 -10 -10 -10
-5 0 -10 5 -10 10 0 6 5 10 10 10 6 0 10 -4 10 -10z m95 -2 c24 -11 34 -28 17
-28 -12 0 -72 30 -72 36 0 8 29 4 55 -8z m90 -59 c11 -17 -1 -21 -15 -4 -8 9
-8 15 -2 15 6 0 14 -5 17 -11z"/>
<path d="M3653 3250 c9 -16 9 -24 -1 -40 -7 -12 -10 -25 -7 -31 10 -15 25 0
18 18 -5 12 -2 15 10 10 13 -5 14 -2 6 23 -6 16 -17 31 -25 34 -11 4 -12 2 -1
-14z"/>
<path d="M2950 3201 c0 -5 5 -13 10 -16 6 -3 10 -2 10 4 0 5 -4 13 -10 16 -5
3 -10 2 -10 -4z"/>
<path d="M3330 3199 c0 -8 32 -29 44 -29 15 0 3 16 -19 27 -14 6 -25 7 -25 2z"/>
<path d="M2430 3110 c0 -5 7 -10 15 -10 8 0 15 5 15 10 0 6 -7 10 -15 10 -8 0
-15 -4 -15 -10z"/>
<path d="M3645 3090 c3 -5 11 -10 16 -10 6 0 7 5 4 10 -3 6 -11 10 -16 10 -6
0 -7 -4 -4 -10z"/>
<path d="M2395 3060 c-3 -5 -1 -10 4 -10 6 0 11 5 11 10 0 6 -2 10 -4 10 -3 0
-8 -4 -11 -10z"/>
<path d="M3895 3030 c-3 -5 -1 -10 4 -10 6 0 11 5 11 10 0 6 -2 10 -4 10 -3 0
-8 -4 -11 -10z"/>
<path d="M3625 3009 c-10 -14 -3 -19 42 -30 69 -16 81 -10 33 16 -50 27 -66
30 -75 14z"/>
<path d="M3270 2962 c0 -4 9 -14 19 -22 11 -7 18 -17 15 -22 -3 -4 6 -10 20
-14 14 -3 27 -13 29 -22 4 -16 5 -16 11 0 9 21 -18 60 -53 76 -29 14 -41 15
-41 4z"/>
<path d="M3380 2895 c0 -18 19 -40 26 -32 4 4 0 15 -9 24 -9 10 -17 13 -17 8z"/>
<path d="M3614 2865 c22 -17 46 -20 46 -6 0 10 -25 21 -48 21 -15 -1 -14 -3 2
-15z"/>
<path d="M2920 2851 c0 -5 5 -13 10 -16 6 -3 10 -2 10 4 0 5 -4 13 -10 16 -5
3 -10 2 -10 -4z"/>
<path d="M3415 2690 c3 -5 8 -10 11 -10 2 0 4 5 4 10 0 6 -5 10 -11 10 -5 0
-7 -4 -4 -10z"/>
<path d="M3073 2667 c9 -8 17 -20 17 -26 0 -7 5 -9 10 -6 17 10 11 21 -17 34
-24 10 -26 10 -10 -2z"/>
<path d="M3743 2643 c9 -2 25 -2 35 0 9 3 1 5 -18 5 -19 0 -27 -2 -17 -5z"/>
<path d="M3520 2281 c0 -5 5 -13 10 -16 6 -3 10 -2 10 4 0 5 -4 13 -10 16 -5
3 -10 2 -10 -4z"/>
<path d="M3050 2184 c1 -16 29 -60 29 -44 0 8 -6 24 -14 34 -8 11 -15 16 -15
10z"/>
<path d="M3430 2160 c0 -5 5 -10 11 -10 5 0 7 5 4 10 -3 6 -8 10 -11 10 -2 0
-4 -4 -4 -10z"/>
<path d="M4345 2010 c-17 -18 -17 -20 -1 -20 9 0 19 7 23 15 9 25 -2 27 -22 5z"/>
<path d="M4485 1790 c-3 -5 3 -10 14 -10 11 0 23 5 26 10 3 6 -3 10 -14 10
-11 0 -23 -4 -26 -10z"/>
<path d="M4580 1665 c0 -8 5 -15 10 -15 6 0 10 7 10 15 0 8 -4 15 -10 15 -5 0
-10 -7 -10 -15z"/>
<path d="M4465 2670 c11 -5 29 -9 40 -9 l20 0 -20 9 c-11 5 -29 9 -40 9 l-20
0 20 -9z"/>
<path d="M4500 2590 c0 -5 9 -10 20 -10 11 0 20 5 20 10 0 6 -9 10 -20 10 -11
0 -20 -4 -20 -10z"/>
<path d="M4608 2543 c7 -3 16 -2 19 1 4 3 -2 6 -13 5 -11 0 -14 -3 -6 -6z"/>
<path d="M5185 2290 c3 -5 8 -10 11 -10 2 0 4 5 4 10 0 6 -5 10 -11 10 -5 0
-7 -4 -4 -10z"/>
<path d="M5364 1689 c-3 -6 -2 -15 4 -21 6 -6 11 -2 15 11 5 22 -7 29 -19 10z"/>
<path d="M5370 1556 c0 -2 7 -7 16 -10 8 -3 12 -2 9 4 -6 10 -25 14 -25 6z"/>
<path d="M2 25 c0 -17 2 -22 5 -12 2 9 2 23 0 30 -3 6 -5 -1 -5 -18z"/>
</g>
</svg>
